<?xml version="1.0" encoding="iso-8859-1"?>
<!-- Generator: Adobe Illustrator 19.0.0, SVG Export Plug-In . SVG Version: 6.00 Build 0)  -->
<svg version="1.1" id="Capa_1" xmlns="http://www.w3.org/2000/svg" xmlns:xlink="http://www.w3.org/1999/xlink" x="0px" y="0px"
	 viewBox="0 0 512 512" style="enable-background:new 0 0 512 512;" xml:space="preserve">
<circle style="fill:#9D81B3;" cx="256" cy="256" r="256"/>
<path style="fill:#71518A;" d="M512,256c0-15.441-1.368-30.563-3.987-45.251L358.5,61.237h-87.423l-5.827-9h-18.5v165.78
	c-10.578,2.336-20.401,8.714-26.8,19.183L89.512,450.457c0.275,0.236,0.555,0.468,0.831,0.703c1.781,1.509,3.583,2.995,5.404,4.458
	l-0.003,0.005C139.612,490.885,195.336,512,256,512C397.385,512,512,397.385,512,256z"/>
<polygon style="fill:#EE2600;" points="358.5,124.737 260.5,124.737 260.5,61.237 358.5,61.237 327.333,92.987 "/>
<rect x="246.75" y="52.24" style="fill:#FFFFFF;" width="18.5" height="171.5"/>
<rect x="256" y="52.24" style="fill:#E1E1E3;" width="9.25" height="171.5"/>
<path style="fill:#3A4DE3;" d="M422.49,450.46C377.73,488.82,319.57,512,256,512s-121.73-23.18-166.49-61.54L219.95,237.2
	c8.24-13.48,22.15-20.21,36.05-20.21c0.56,0,1.12,0.01,1.68,0.04c0.31,0,0.62,0.02,0.92,0.04c0.44,0.03,0.87,0.06,1.3,0.1
	c0.42,0.04,0.84,0.08,1.25,0.13c0.23,0.03,0.45,0.06,0.68,0.09c0.37,0.05,0.75,0.11,1.12,0.17c0.31,0.05,0.61,0.1,0.92,0.16
	c0.4,0.07,0.8,0.15,1.19,0.24c0.06,0.01,0.13,0.03,0.19,0.04c0.49,0.11,0.98,0.22,1.46,0.35c0.3,0.07,0.6,0.15,0.89,0.24
	c0.45,0.12,0.89,0.26,1.33,0.39c0.39,0.13,0.79,0.26,1.18,0.4c0.47,0.16,0.92,0.33,1.38,0.51c0.32,0.12,0.64,0.25,0.95,0.38
	c0.45,0.19,0.89,0.38,1.33,0.59c0.37,0.16,0.74,0.34,1.1,0.52c0.3,0.15,0.61,0.31,0.91,0.47c0.27,0.14,0.53,0.28,0.79,0.43
	c0.09,0.04,0.18,0.09,0.27,0.15c0.25,0.14,0.5,0.28,0.75,0.43c3.36,1.98,6.48,4.47,9.26,7.47c0.32,0.34,0.64,0.69,0.94,1.05
	c0.24,0.27,0.48,0.55,0.71,0.83c0.13,0.15,0.25,0.31,0.38,0.47c0.24,0.3,0.47,0.6,0.71,0.91c0.33,0.43,0.64,0.87,0.95,1.31
	c0.25,0.35,0.49,0.7,0.72,1.06c0.27,0.41,0.53,0.82,0.79,1.24l94.15,153.93L422.49,450.46z"/>
<path style="fill:#1C2EDE;" d="M422.49,450.46C377.73,488.82,319.57,512,256,512V216.99c0.56,0,1.12,0.01,1.68,0.04
	c0.31,0,0.62,0.02,0.92,0.04c0.44,0.03,0.87,0.06,1.3,0.1c0.42,0.04,0.84,0.08,1.25,0.13c0.23,0.03,0.45,0.06,0.68,0.09
	c0.37,0.05,0.75,0.11,1.12,0.17c0.31,0.05,0.61,0.1,0.92,0.16c0.4,0.07,0.8,0.15,1.19,0.24c0.06,0.01,0.13,0.03,0.19,0.04
	c0.49,0.11,0.98,0.22,1.46,0.35c0.3,0.07,0.6,0.15,0.89,0.24c0.45,0.12,0.89,0.26,1.33,0.39c0.39,0.13,0.79,0.26,1.18,0.4
	c0.47,0.16,0.92,0.33,1.38,0.51c0.32,0.12,0.64,0.25,0.95,0.38c0.45,0.19,0.89,0.38,1.33,0.59c0.37,0.16,0.74,0.34,1.1,0.52
	c0.3,0.15,0.61,0.31,0.91,0.47c0.27,0.14,0.53,0.28,0.79,0.43c0.09,0.04,0.18,0.09,0.27,0.15c0.25,0.14,0.5,0.28,0.75,0.43
	c3.36,1.98,6.48,4.47,9.26,7.47c0.32,0.34,0.64,0.69,0.94,1.05c0.24,0.27,0.48,0.55,0.71,0.83c0.13,0.15,0.25,0.31,0.38,0.47
	c0.24,0.3,0.47,0.6,0.71,0.91c0.33,0.43,0.64,0.87,0.95,1.31c0.25,0.35,0.49,0.7,0.72,1.06c0.27,0.41,0.53,0.82,0.79,1.24
	l94.15,153.93L422.49,450.46z"/>
<path style="fill:#6D76E7;" d="M256,393.25l44.5-72l85.7,69.878l0,0l-94.146-153.929c-16.482-26.949-55.626-26.949-72.108,0
	L125.8,391.127l85.7-69.877L256,393.25z"/>
<path style="fill:#3A4DE3;" d="M386.2,391.13l-85.7-69.88l-44.5,72V216.99c3.11,0,6.21,0.34,9.25,1.01
	c10.58,2.33,20.4,8.73,26.8,19.2L386.2,391.13z"/>
<g>
</g>
<g>
</g>
<g>
</g>
<g>
</g>
<g>
</g>
<g>
</g>
<g>
</g>
<g>
</g>
<g>
</g>
<g>
</g>
<g>
</g>
<g>
</g>
<g>
</g>
<g>
</g>
<g>
</g>
</svg>
